<?xml version="1.0" standalone="no"?>
<!DOCTYPE svg PUBLIC "-//W3C//DTD SVG 20010904//EN"
 "http://www.w3.org/TR/2001/REC-SVG-20010904/DTD/svg10.dtd">
<svg version="1.0" xmlns="http://www.w3.org/2000/svg"
 width="256.000000pt" height="256.000000pt" viewBox="0 0 256.000000 256.000000"
 preserveAspectRatio="xMidYMid meet">

<g transform="translate(0.000000,256.000000) scale(0.100000,-0.100000)"
fill="#000000" stroke="none">
<path d="M69 2513 c-61 -37 -81 -132 -45 -203 10 -19 54 -83 98 -142 73 -98
84 -120 124 -238 55 -163 99 -260 152 -329 39 -52 40 -54 28 -90 -82 -231 -77
-501 11 -662 36 -68 104 -129 142 -129 78 0 101 31 120 160 19 124 19 124 64
35 44 -89 119 -187 179 -235 22 -18 70 -60 106 -94 l66 -61 -54 65 c-105 127
-229 332 -290 480 -17 41 -35 86 -41 99 -9 23 -10 23 -44 -20 -47 -59 -71
-126 -85 -242 -8 -59 -17 -97 -24 -97 -41 0 -95 92 -122 209 -12 48 -15 101
-12 196 4 114 9 141 36 219 43 121 42 140 -13 205 -55 64 -90 138 -145 305
-42 128 -76 187 -196 349 -21 27 -38 63 -41 86 -5 34 -2 41 20 56 19 12 36 15
59 10 53 -11 198 -82 252 -124 49 -38 55 -40 161 -49 86 -8 126 -17 182 -41
327 -141 617 -438 761 -781 83 -199 215 -471 246 -504 25 -28 53 -42 149 -75
65 -22 137 -51 160 -65 73 -43 280 -191 284 -202 2 -7 -33 -13 -104 -17 -76
-4 -133 -13 -193 -32 -106 -34 -112 -38 -97 -73 41 -97 145 -186 317 -272 108
-54 181 -101 238 -154 17 -16 32 -26 32 -20 0 45 -188 233 -302 302 -96 58
-152 105 -146 124 5 13 71 30 208 53 98 16 160 32 160 42 0 17 -95 118 -160
170 -128 102 -225 163 -348 217 l-117 52 -79 160 c-43 87 -109 230 -147 316
-83 193 -174 331 -314 477 -137 142 -310 274 -452 345 -66 34 -200 66 -270 66
-54 0 -64 4 -114 41 -145 109 -324 159 -400 112z"/>
<path d="M520 2094 c0 -3 13 -23 29 -43 15 -20 36 -51 45 -69 14 -26 20 -31
31 -22 35 29 20 106 -24 130 -21 11 -81 14 -81 4z"/>
</g>
</svg>
