<?xml version="1.0" standalone="no"?>
<!DOCTYPE svg PUBLIC "-//W3C//DTD SVG 20010904//EN"
 "http://www.w3.org/TR/2001/REC-SVG-20010904/DTD/svg10.dtd">
<svg version="1.0" xmlns="http://www.w3.org/2000/svg"
 width="500.000000pt" height="500.000000pt" viewBox="0 0 500.000000 500.000000"
 preserveAspectRatio="xMidYMid meet">

<g transform="translate(0.000000,500.000000) scale(0.100000,-0.100000)"
fill="#000000" stroke="none">
<path d="M2334 4990 c-685 -46 -1325 -376 -1758 -905 -110 -134 -161 -208
-244 -353 -306 -535 -401 -1172 -266 -1782 80 -357 257 -724 488 -1010 410
-508 986 -830 1636 -916 259 -34 589 -18 860 42 664 148 1256 582 1605 1177
373 638 443 1407 190 2112 -187 524 -590 1007 -1078 1294 -347 203 -706 313
-1117 341 -157 11 -153 11 -316 0z m371 -110 c561 -52 1051 -276 1454 -665
358 -345 606 -806 690 -1285 119 -674 -36 -1325 -448 -1875 -174 -232 -441
-469 -696 -617 -612 -357 -1333 -424 -2010 -188 -129 45 -373 167 -495 247
-553 363 -937 940 -1049 1573 -76 426 -43 825 99 1235 45 129 167 373 247 495
488 742 1342 1160 2208 1080z"/>
<path d="M2277 4629 c-327 -29 -708 -170 -992 -367 -198 -138 -416 -353 -529
-522 l-36 -55 122 -3 c68 -1 229 4 358 12 269 15 290 12 309 -46 15 -45 -2
-94 -38 -112 -14 -7 -57 -16 -96 -20 -38 -3 -95 -9 -126 -12 l-56 -6 123 -366
c233 -694 641 -1907 646 -1922 2 -8 109 299 237 683 l233 697 -70 193 c-39
105 -112 307 -163 447 -51 140 -95 258 -98 262 -3 4 -58 12 -121 18 -63 7
-126 17 -140 23 -13 7 -30 28 -38 48 -12 33 -12 41 3 72 10 21 27 39 43 44 16
6 143 3 320 -6 260 -13 324 -13 585 0 171 9 303 12 318 7 58 -19 70 -106 21
-149 -24 -22 -43 -28 -108 -33 -44 -4 -102 -9 -130 -12 l-52 -6 230 -682 c126
-374 297 -883 380 -1131 140 -419 168 -495 168 -453 0 9 24 96 54 195 70 233
191 633 228 753 80 259 97 450 57 643 -26 129 -78 250 -187 431 -47 77 -98
168 -113 201 -84 180 -77 361 19 489 62 81 138 123 274 148 12 2 -3 20 -50 58
-440 365 -993 532 -1585 479z"/>
<path d="M4398 3357 c7 -231 -35 -473 -123 -712 -20 -55 -45 -125 -55 -155
-10 -30 -52 -154 -95 -275 -42 -121 -98 -283 -124 -360 -27 -77 -130 -376
-230 -664 -100 -288 -179 -526 -177 -528 2 -2 48 26 102 63 548 373 888 959
936 1612 27 367 -34 718 -183 1044 -28 62 -52 114 -53 115 -1 2 0 -61 2 -140z"/>
<path d="M502 3268 c-80 -217 -117 -384 -134 -605 -53 -706 231 -1367 782
-1824 113 -94 400 -274 400 -252 0 5 -22 69 -49 143 -70 193 -625 1714 -726
1990 -129 352 -203 558 -214 593 -7 20 -16 37 -20 37 -5 0 -22 -37 -39 -82z"/>
<path d="M2220 1378 c-172 -502 -315 -918 -317 -924 -4 -11 121 -44 267 -69
203 -36 532 -29 745 15 86 18 272 68 284 76 3 3 -45 138 -164 464 -30 80 -131
356 -225 615 -231 635 -262 719 -270 728 -3 4 -147 -404 -320 -905z"/>
</g>
</svg>
